# xmcd
#
# Track frame offsets:
#	150
#	13750
#	33175
#	44600
#	65062
#	79712
#	97437
#	117572
#	128825
#	141277
#
# Disc length: 2051
#
# Revision: 3
# Processed by: cddbd v1.5.1PL0 Copyright (c) Steve Scherf et al.
# Submitted via: Media_Universe 3.0
# Normalized: r2:DSETVAR1
#
DISCID=9408010a
DTITLE=Various Artist - Blues and Soul Christmas
DYEAR=1997
DGENRE=Holiday
TTITLE0=Lowell Fulson - Lonesome Christmas Part 1
TTITLE1=Patti LaBelle - This Christmas
TTITLE2=Charles Brown - Please Come Home For Christmas
TTITLE3=Bobby Bland - You Are My Christmas
TTITLE4=The Jets - I'll Be Home For Christmas
TTITLE5=B. B. King - Merry Christmas Baby
TTITLE6=Jumpin' Joe Whiting - Christmas Ain't Like It Used To Be
TTITLE7=Lowell Fulson - Lonesome Christmas Part 2
TTITLE8=Rotary Connection - Christmas Child
TTITLE9=Ramsey Lewis - Christmas Blues
EXTD=
EXTT0=
EXTT1=
EXTT2=
EXTT3=
EXTT4=
EXTT5=
EXTT6=
EXTT7=
EXTT8=
EXTT9=
PLAYORDER=
